<svg xmlns="http://www.w3.org/2000/svg" version="1.1" xmlns:xlink="http://www.w3.org/1999/xlink" viewBox="0 0 200 200" width="200" height="200"><rect width="200" height="200" fill="url('#gradient')"></rect><defs><linearGradient id="gradient" gradientTransform="rotate(45 0.5 0.5)"><stop offset="0%" stop-color="#472027"></stop><stop offset="100%" stop-color="#192025"></stop></linearGradient></defs><g><g fill="#f3bd7d" transform="matrix(2.1320994794679007,0,0,2.1320994794679007,10.065427806361548,111.43992330607408)" stroke="#c06a3e" stroke-width="0.2"><path d="M3.77-14.22L6.59-3.87L9.42-14.22L13.25-14.22L8.47 0L4.72 0L-0.03-14.22L3.77-14.22ZM17.61-10.57L17.61 0L14.31 0L14.31-10.57L17.61-10.57ZM14.11-13.29L14.11-13.29Q14.11-13.99 14.62-14.44Q15.13-14.89 15.94-14.89Q16.75-14.89 17.26-14.44Q17.76-13.99 17.76-13.29Q17.76-12.59 17.26-12.14Q16.75-11.69 15.94-11.69Q15.13-11.69 14.62-12.14Q14.11-12.59 14.11-13.29ZM19.57-10.57L22.66-10.57L22.76-9.33Q23.86-10.76 25.78-10.76L25.78-10.76Q27.43-10.76 28.25-9.78Q29.06-8.79 29.09-6.81L29.09-6.81L29.09 0L25.79 0L25.79-6.67Q25.79-7.47 25.47-7.85Q25.15-8.22 24.30-8.22L24.30-8.22Q23.33-8.22 22.86-7.46L22.86-7.46L22.86 0L19.57 0L19.57-10.57ZM33.47-10.57L35.14-4.61L36.89-10.57L40.42-10.57L36.11 1.77L35.93 2.22Q35.01 4.27 32.69 4.27L32.69 4.27Q32.04 4.27 31.33 4.07L31.33 4.07L31.33 1.72L31.76 1.72Q32.45 1.72 32.82 1.52Q33.18 1.32 33.36 0.80L33.36 0.80L33.62 0.10L29.95-10.57L33.47-10.57ZM44.75-15L44.75 0L41.45 0L41.45-15L44.75-15ZM50.24-15L50.24 0L46.94 0L46.94-15L50.24-15ZM55.74-10.57L55.74 0L52.44 0L52.44-10.57L55.74-10.57ZM52.25-13.29L52.25-13.29Q52.25-13.99 52.75-14.44Q53.26-14.89 54.07-14.89Q54.88-14.89 55.39-14.44Q55.90-13.99 55.90-13.29Q55.90-12.59 55.39-12.14Q54.88-11.69 54.07-11.69Q53.26-11.69 52.75-12.14Q52.25-12.59 52.25-13.29ZM64.16 0L64.06-1.14Q63.02 0.20 61.24 0.20L61.24 0.20Q59.50 0.20 58.61-0.82Q57.71-1.83 57.71-3.72L57.71-3.72L57.71-10.57L61.01-10.57L61.01-3.70Q61.01-2.34 62.32-2.34L62.32-2.34Q63.46-2.34 63.94-3.15L63.94-3.15L63.94-10.57L67.25-10.57L67.25 0L64.16 0ZM69.07-10.57L72.16-10.57L72.27-9.33Q73.39-10.76 75.28-10.76L75.28-10.76Q77.29-10.76 77.99-9.17L77.99-9.17Q79.06-10.76 81.09-10.76L81.09-10.76Q84.31-10.76 84.39-6.88L84.39-6.88L84.39 0L81.09 0L81.09-6.67Q81.09-7.48 80.82-7.85Q80.55-8.22 79.82-8.22L79.82-8.22Q78.85-8.22 78.37-7.35L78.37-7.35L78.38-7.22L78.38 0L75.08 0L75.08-6.65Q75.08-7.48 74.81-7.85Q74.55-8.22 73.81-8.22L73.81-8.22Q72.86-8.22 72.36-7.35L72.36-7.35L72.36 0L69.07 0L69.07-10.57Z"></path></g></g></svg>